<?xml version="1.0" standalone="no"?>
<!DOCTYPE svg PUBLIC "-//W3C//DTD SVG 1.1//EN" "http://www.w3.org/Graphics/SVG/1.1/DTD/svg11.dtd" >
<svg xmlns="http://www.w3.org/2000/svg" xmlns:xlink="http://www.w3.org/1999/xlink" version="1.1">
<metadata>
Created by FontForge 20170924 at Wed Jul 31 18:00:15 2013
 By www-data
Created by jeanny with FontForge 2.0 (http://fontforge.sf.net)
</metadata>
<defs>
<font id="Digital" horiz-adv-x="517" >
  <font-face 
    font-family="Digital"
    font-weight="500"
    font-stretch="normal"
    units-per-em="1000"
    panose-1="2 0 6 3 0 0 0 0 0 0"
    ascent="800"
    descent="-200"
    x-height="706.25"
    cap-height="720.166"
    bbox="-48.8594 -140.918 883.684 855.176"
    underline-thickness="50"
    underline-position="-100"
    stemh="85"
    stemv="86"
    unicode-range="U+0021-00AD"
  />
<missing-glyph horiz-adv-x="500" 
d="M50 0v533h400v-533h-400zM100 50h300v433h-300v-433z" />
    <glyph glyph-name=".notdef" horiz-adv-x="500" 
d="M50 0v533h400v-533h-400zM100 50h300v433h-300v-433z" />
    <glyph glyph-name="exclam" unicode="!" horiz-adv-x="268" 
d="M164.323 0.195312h-87.1572l-0.475586 155.029h87.1582zM163.668 212.109l-87.5635 65.1855l-1.63477 356.934l86.4336 85.9375z" />
    <glyph glyph-name="quotedbl" unicode="&#x22;" horiz-adv-x="396" 
d="M191.563 495.312h-62.9883l-1.29883 224.854h62.9893zM295.567 495.312h-62.9883l-1.29883 224.854h62.9893z" />
    <glyph glyph-name="numbersign" unicode="#" horiz-adv-x="1000" 
d="M203.782 229.199h-114.99l6.45508 44.9219h114.99l22.5156 172.119h-114.99l5.23535 44.9219h116.211l27.083 213.135h44.9219l-27.083 -213.135h107.91l27.083 213.135h45.166l-27.083 -213.135h114.99l-6.45605 -44.9219h-114.99l-22.5156 -172.119h114.991
l-6.45508 -44.9219h-114.991l-28.0791 -212.891h-44.9219l28.0791 212.891h-107.91l-28.3232 -212.891h-44.9219zM255.159 274.121h108.153l22.2725 172.119h-107.91z" />
    <glyph glyph-name="dollar" unicode="$" horiz-adv-x="1000" 
d="M115.448 421.094l-87.2646 -49.8047l0.454102 247.803l44.2109 43.2129l43.9229 -43.2129zM129.072 320.264l-81.3379 40.0391l81.5576 46.875h210.938l82.5039 -46.875l-82.7236 -40.0391h-210.938zM396.4 58.3008l-42.6689 42.9688l1.37598 204.834l86.9346 43.2119
l-1.39746 -248.046zM235.667 -119.923l-44.6025 41.0156l0.804688 68.1152l43.1348 34.9121l43.9121 -35.8887l-0.279297 -72.0215zM185.259 0.194336h-151.855l95.3223 85.9375h212.89l42.6523 -41.0156l-43.0029 -44.9219h-52.002l-54.2178 47.1191zM131.575 634.229
l-39.8721 43.9453l41.4453 41.9922h55.9082l49.5986 -49.0723l51.4746 49.0723h111.816l-34.2871 -85.9375h-236.084zM238.32 695.264l-41.4307 41.0146l0.126953 65.918l43.0225 42.9688l43.4951 -40.0391l-0.707031 -68.8477z" />
    <glyph glyph-name="percent" unicode="%" horiz-adv-x="1000" 
d="M48.9668 407.178l-47.1035 42.9678l-4.04883 170.166l45.0986 41.9932l45.1895 -43.2129l3.84863 -168.946zM100.507 634.229l-44.5859 41.0146l42.6641 44.9219h173.828l44.4941 -44.9219l-43.3047 -41.0146h-173.096zM337.052 407.177l-43.1982 42.9688
l-4.04785 170.166l41.0312 42.9688l45.9658 -41.9922l3.80469 -170.166zM106.907 353.223l-45.4834 39.0625l44.4561 45.8994h173.096l44.4111 -45.8994l-42.6514 -39.0625h-173.828zM479.725 341.26l-50.1787 86.9141l170.991 291.992h103.027zM279.935 0.195312h-101.075
l188.348 320.068h101.074zM551.066 60.2539l-46.2871 43.9443l-3.84766 168.946l44.9365 42.9678l45.1504 -42.9678l4.00879 -169.922zM603.449 282.178l-44.4121 45.8984l43.0625 41.0156h174.072l43.6523 -39.7949l-43.2793 -47.1191h-173.096zM839.723 61.2305
l-42.9521 42.9678l-4.8252 168.946l41.8477 43.9453l46.126 -42.9688l3.76465 -169.922zM609.768 0.194336l-45.2266 44.9219l44.2822 41.0156h172.852l44.8291 -41.0156l-42.6641 -44.9219h-174.072z" />
    <glyph glyph-name="ampersand" unicode="&#x26;" horiz-adv-x="1000" 
d="M97.3467 58.3008l-43.9189 42.9688l-0.166992 248.046l87.166 -43.2119l-0.0849609 -204.834zM140.034 421.094l-86.9512 -49.8047l0.112305 247.803l43.6934 43.2129l43.2207 -43.2129zM155.059 634.229l-45.001 41.9922l44.8096 43.9453h210.938l44.2998 -43.9453
l-44.1104 -41.9922h-210.937zM155.612 0.196289l-45.2764 43.9453l45.0859 41.9922h211.182l43.7812 -41.9922l-43.834 -43.9453h-210.938zM294.431 320.265l-87.833 41.0146l74.5635 45.8994h86.9141l44.7148 -46.875l-44.3857 -40.0391h-73.9736zM425.853 373.242
l-42.6562 47.8516l0.0605469 91.0645l43.6963 44.9219l44.1943 -44.9219l0.078125 -92.041zM485.348 320.264l-44.5527 38.8184l46.1768 48.0957h41.0146l84.7539 -46.875l-73.4375 -40.0391h-53.9551zM425.333 59.2773l-43.0498 41.9922l0.223633 203.857l43.4092 40.0391
l44.6191 -41.0156l0.0224609 -203.857z" />
    <glyph glyph-name="quotesingle" unicode="'" horiz-adv-x="284" 
d="M183.506 495.312h-62.9883l-0.753906 224.854h62.9883z" />
    <glyph glyph-name="parenleft" unicode="(" horiz-adv-x="376" 
d="M99.8721 58.3008l-43.6475 42.9688l1.39844 248.046l86.8926 -43.2119l-1.37695 -204.834zM144.849 421.094l-87.2656 -49.8047l1.6748 247.803l43.9668 43.2129l42.9473 -43.2129zM161.217 634.229l-44.7373 41.9912l45.0879 43.9453h113.037l-66.5127 -85.9365h-46.875
zM157.771 0.195312l-45 43.9453l45.3525 41.9922h47.1191l64.5889 -85.9375h-112.061z" />
    <glyph glyph-name="parenright" unicode=")" horiz-adv-x="322" 
d="M220.242 371.289l-87.6572 42.9688l-0.768555 204.834l48.3906 43.2129l40.5 -43.2129zM174.334 58.3008l-41.7129 42.9688l0.150391 197.998l88.417 50.0479l0.324219 -248.046zM115.779 0.195312h-113.037l66.8721 85.9375h46.875l43.584 -41.9922zM74.752 634.229
l-65.208 85.9375h113.037l43.8408 -43.9453l-44.5508 -41.9922h-47.1191z" />
    <glyph glyph-name="asterisk" unicode="*" horiz-adv-x="466" 
d="M53.79 416.211l-50.8711 20.9961l6.90039 54.9316l123.423 71.0449l38.9961 -29.0527l0.220703 -47.8516zM320.88 416.211l-125.343 69.0918l0.369141 50.7812l41.7266 24.1699l119.829 -66.1621l7.84863 -52.002zM185.85 551.221l-44.2812 33.9346l1.60156 130.127
l44.7158 32.959l44.5244 -33.9346l-1.71582 -131.104z" />
    <glyph glyph-name="plus" unicode="+" horiz-adv-x="529" 
d="M156.571 317.09l-148.926 0.000976562l43.958 86.1807h110.107l42.7373 -41.9922zM273.759 317.091l-37.2363 43.2129l44.085 42.9678h147.95l-42.9824 -86.1807h-111.816zM251.928 195.265l-88.1514 -39.0635l7.36914 145.996l45.7031 43.9463l40.2344 -43.9463z
M218.378 374.219l-43.2559 44.9219l4.91113 106.933l90.3486 39.0635l-7.27832 -146.973z" />
    <glyph glyph-name="comma" unicode="," horiz-adv-x="181" 
d="M75.9775 -93.7988h-90.0879l4.8291 249.023h90.0879z" />
    <glyph glyph-name="hyphen" unicode="-" horiz-adv-x="362" 
d="M220.578 216.26h-243.896l40.8184 85.9365h244.141z" />
    <glyph glyph-name="period" unicode="." horiz-adv-x="173" 
d="M51.0254 0.195312h-86.9141l21.9727 155.029h86.9141z" />
    <glyph glyph-name="slash" unicode="/" horiz-adv-x="594" 
d="M211.179 0.195312h-102.052l125.828 320.068h101.074zM343.368 341.26l-67.1533 86.9141l114.931 291.992h102.051z" />
    <glyph glyph-name="zero" unicode="0" 
d="M45.1953 58.3008l-43.9189 42.9688l-0.166992 248.046l87.166 -43.2119l-0.0849609 -204.834zM87.8828 421.094l-86.9512 -49.8047l0.112305 247.803l43.6934 43.2129l43.2207 -43.2129zM102.907 634.229l-44.999 41.9922l44.8105 43.9453h210.937l44.3008 -43.9453
l-44.1104 -41.9922h-210.938zM414.996 371.29l-87.1201 49.8047l0.0751953 197.998l43.9375 43.2129l42.9756 -43.2129zM372.347 58.3018l-44.1631 42.9688l0.0849609 204.834l86.9062 43.2119l1.14258 -248.046zM103.464 0.196289l-45.2783 43.9453l45.0879 41.9922
h211.181l43.7803 -41.9922l-43.834 -43.9453h-210.937z" />
    <glyph glyph-name="one" unicode="1" horiz-adv-x="156" 
d="M100.876 371.956l-87 49.8066l0.40625 211.134l86.1768 87.9365zM100.452 0.863281l-86.8955 86.9375l0.432617 218.972l87.0107 43.2119z" />
    <glyph glyph-name="two" unicode="2" horiz-adv-x="427" 
d="M332.312 421.094l-0.374023 203.998l40.1562 40.2129l46.7588 -46.2129l-0.514648 -247.803zM316.968 634.229h-226.019l-86.9102 85.9375h316.988l40.877 -40.9453zM48.3975 58.3008l-44.0361 42.9688l-0.207031 248.046l87.9492 -43.2119l0.392578 -204.834z
M104.43 -0.804688l-42.8994 42.9453l44.7168 43.9922h218.018l86.1533 -85.9375zM317.229 320.264h-211.184l-81.3115 40.0391l81.5098 46.875h210.938l81.5762 -46.875z" />
    <glyph glyph-name="three" unicode="3" horiz-adv-x="477" 
d="M101 87l237.066 1.77148l44.0488 -43.9922l-44.0859 -43.9453h-326.096zM436.009 349.711l-0.0878906 -247.803l-42.8418 -43.2129l-43.0488 43.2129l-0.0761719 197.998zM100.886 634.229l-85.9521 85.9375h323.096l44.0859 -43.9453l-42.0488 -41.9922h-239.181z
M436.008 371.29l-86.0547 49.8047l0.0761719 197.998l43.0488 43.2129l42.8418 -43.2129zM94.333 320.667l-76.3213 39.6367l72.8906 46.875h249.182l81.9512 -46.875l-72.9141 -40.0391z" />
    <glyph glyph-name="four" unicode="4" 
d="M326.905 421.094l-0.885742 213.135l88.1035 85.9375l-0.266602 -348.877zM88.0957 421.094l-86.9512 -49.8047l0.733398 348.877l86.1045 -85.9375zM416.662 0.195312l-89.0811 86.9375l0.898438 218.972l87.8818 43.2119zM103.331 320.264l-81.5908 40.0391
l81.5059 46.875h210.938l81.5801 -46.875l-81.252 -40.0391h-211.182z" />
    <glyph glyph-name="five" unicode="5" horiz-adv-x="441" 
d="M87.1445 421.094l-87.0254 -49.8047l0.485352 247.803l43.7588 43.2129l43.1553 -43.2129zM102.49 634.229l-44.9375 41.9912l44.877 43.9453h312.988l-94.9102 -85.9365h-218.018zM371.06 58.3008l-44.0986 42.9688l0.392578 204.834l87.9492 43.2119
l-0.207031 -248.046zM313.027 0.195312h-312.987l95.1533 85.9375h218.018l43.7168 -41.9922zM102.23 320.264l-81.5312 40.0391l81.5762 46.875h210.938l81.5098 -46.875l-81.3115 -40.0391h-211.182z" />
    <glyph glyph-name="six" unicode="6" horiz-adv-x="442" 
d="M92.1445 296.906l-0.625977 -192.998l-47.1553 -48.2129l-43.7588 45.2129l-0.485352 245.803zM87.1445 421.094l-87.0254 -49.8047l0.485352 247.803l43.7588 43.2129l43.1553 -43.2129zM102.49 634.229l-44.9375 41.9912l44.877 43.9453h312.988l-94.9102 -85.9365
h-218.018zM371.06 58.3008l-44.0986 42.9688l0.392578 204.834l87.9492 43.2119l-0.207031 -248.046zM315.027 0.195312h-219.987l-45.0391 45.1221l49.1924 47.8154l214.018 -1l46.7168 -47.9922zM102.229 320.264l-81.5312 40.0391l81.5762 46.875h210.938
l81.5098 -46.875l-81.3115 -40.0391h-211.182z" />
    <glyph glyph-name="seven" unicode="7" horiz-adv-x="622" 
d="M173.054 630.77l-61.4688 36.415l59.2051 46.2129h334.053l-92.209 -82.6279h-239.58zM551.636 371.838l-95.6045 83.4834l0.446289 174.372l94.7002 86.5645zM551.17 6.53418l-95.4883 85.5811l0.474609 173.227l95.6162 84.8672z" />
    <glyph glyph-name="eight" unicode="8" 
d="M101.907 320.229l-76.999 41.9922l76.8105 43.9453h210.937l73.3008 -43.9453l-73.1104 -41.9922h-210.938zM45.1973 58.3008l-43.9189 42.9688l-0.166992 248.046l87.166 -43.2119l-0.0849609 -204.834zM86.8848 424.094l-85.9512 -52.8047l0.112305 247.803
l43.6934 43.2129l43.2207 -43.2129zM102.909 634.229l-44.999 41.9922l44.8105 43.9453h210.937l44.3008 -43.9453l-44.1104 -41.9922h-210.938zM414.998 371.29l-87.1201 49.8047l0.0751953 197.998l43.9375 43.2129l42.9756 -43.2129zM372.349 58.3018l-44.1631 42.9688
l0.0849609 204.834l86.9062 43.2119l1.14258 -248.046zM103.466 0.196289l-45.2783 43.9453l45.0879 41.9922h211.181l43.7803 -41.9922l-43.834 -43.9453h-210.937z" />
    <glyph glyph-name="nine" unicode="9" horiz-adv-x="516" 
d="M389.883 421.676l0.625977 202.662l49.1553 44.4131l42.7588 -41.6494l-0.514648 -251.306zM394.883 307.274l87.0254 45.8799l0.514648 -252.227l-43.7588 -39.8086l-44.1553 39.8086zM379.537 86.9834l48.9375 -38.6836l-48.877 -40.4824h-312.988l94.9102 79.166
h218.018zM110.968 666.352l44.0986 -39.582l0.606445 -213.566l-88.9482 -39.8076l0.207031 253.374zM167 719.879h219.988l45.0391 -41.5664l-49.1924 -43.0479l-214.018 0.920898l-46.7168 43.2109zM379.798 400.159l81.5303 -36.8838l-81.5762 -43.1816h-210.938
l-81.5098 43.1816l81.3115 36.8838h211.182z" />
    <glyph glyph-name="colon" unicode=":" horiz-adv-x="258" 
d="M157.641 0.195312h-87.1582l-2.62695 155.029h87.1582zM151.774 320.264h-86.9141l-2.47949 147.949h86.9141z" />
    <glyph glyph-name="semicolon" unicode=";" horiz-adv-x="190" 
d="M40.9844 -93.7988h-89.8438l48.8779 249.023h89.8438zM87.9102 320.264h-86.9141l0.322266 147.949h87.8906z" />
    <glyph glyph-name="question" unicode="?" horiz-adv-x="462" 
d="M179.871 0.195312h-87.1582l0.291992 155.029h86.9141zM48.2129 634.229l-44.0244 41.9922l44.8105 43.9453h209.961l45.2773 -43.9453l-45.0869 -41.9922h-210.938zM361.276 371.289l-86.877 49.8047l-0.168945 197.998l43.9385 43.2129l43.2207 -43.2129z
M181.208 203.076h-88.1348l0.203125 190.186l87.667 -83.0078zM198.571 320.265l-88.2188 86.9141h149.902l81.3047 -44.9219l-81.9531 -41.9922h-61.0352z" />
    <glyph glyph-name="at" unicode="@" horiz-adv-x="802" 
d="M597 145c-3.33301 -0.666992 -8.67188 -1.00586 -16.0049 -1.00586c-23.333 0 -42.666 7.33301 -57.999 22s-23 32.334 -23 53.001c0 4.66699 0.333008 8.33398 1 11.001c-5.33301 -14 -12.666 -25.667 -21.999 -35c-26 -28 -54 -42 -84 -42
c-15.333 0 -31.666 4 -48.999 12c-20.667 10 -37 26.667 -49 50s-18 53 -18 89c0 16.667 0.666992 29.334 2 38.001l5 36c8.66699 41.333 22.667 78.333 42 111c18.667 32 40.667 57 66 75s51.333 27 78 27c38.667 0 66.334 -18 83.001 -54l4 -10l12 59h48l-50 -217l-18 -89
c-1.33301 -5.33301 -2.33301 -11.666 -3 -18.999s-1 -13.666 -1 -18.999c0 -9.33301 1 -17.666 3 -24.999c5.33301 -21.333 19 -32 41 -32c4.66699 0 9.66699 1 15 3c11.333 4 20.666 8.66699 27.999 14c6.66699 5.33301 18 17.333 34 36c11.333 12.667 22.333 30.667 33 54
c10 22.667 17.667 47.667 23 75c4.66699 26.667 7 52.667 7 78c0 74 -22 133.667 -66 179c-44.667 44.667 -102.334 67 -173.001 67c-7.33301 0 -15.666 -0.333008 -24.999 -1c-10 -1.33301 -17.667 -2.33301 -23 -3c-70 -10 -130.667 -43.333 -182 -100
c-52 -57.333 -82.333 -127 -91 -209c-0.666992 -7.33301 -1 -15.333 -1 -24c-0.666992 -8.66699 -1 -15.334 -1 -20.001c0 -24.667 2.33301 -48.334 7 -71.001c14 -72 46.333 -129.333 97 -172c50 -42.667 108 -64 174 -64c54.667 0 108.334 15.333 161.001 46l52 36
c20.667 17.333 40 36.333 58 57l20 -31l-27 -28c-32 -31.333 -64.667 -56.333 -98 -75c-34 -19.333 -68.667 -32.333 -104 -39c-22.667 -4.66699 -46 -7 -70 -7c-92 0 -169.333 32.667 -232 98c-63.333 64.667 -95 147.334 -95 248.001c0 17.333 1 35 3 53
c8.66699 76 36.334 143.333 83.001 202c67.333 85.333 150.666 134 249.999 146c7.33301 1.33301 15.333 2 24 2h19c85.333 0 155 -26.667 209 -80c53.333 -54 80 -123.667 80 -209c0 -27.333 -3 -55.666 -9 -84.999c-13.333 -63.333 -37 -114.666 -71 -153.999
c-31.333 -36.667 -65.666 -57.334 -102.999 -62.001zM332.994 290.994c0 -26.667 3.33398 -47.668 10.001 -63.001c10.667 -24.667 29.334 -37 56.001 -37c16.667 0 32.334 6.66699 47.001 20c11.333 10.667 20.333 21.334 27 32.001c6 10.667 13.667 27.334 23 50.001
c9.33301 22 17.333 48.667 24 80l2 9l9 44c1.33301 7.33301 2.66602 15 3.99902 23c0.666992 7.33301 1 14.666 1 21.999c0 14 -2 25.667 -6 35c-13.333 28 -32.666 42 -57.999 42c-16.667 0 -33.334 -6.33301 -50.001 -19c-10.667 -8 -21.334 -20 -32.001 -36
s-21 -37 -31 -63c-6.66699 -16 -11.334 -32.333 -14.001 -49c-8 -34 -12 -64 -12 -90z" />
    <glyph glyph-name="A" unicode="A" horiz-adv-x="514" 
d="M86.041 86.1328l-84.1211 -85.9375l0.0722656 349.121l84.0547 -43.2119zM92.916 421.094l-90.9941 -49.8047l-0.880859 334.961l91.9512 -87.1582zM103.082 634.229l-92.1963 85.9365h397.01l-98.876 -85.9365h-205.938zM412.96 371.289l-98.0547 49.8047
l0.0761719 197.998l98.0977 87.1582zM412.958 0.195312l-95.9277 84.9375l0.00585938 219.972l95.9941 44.2119zM85.8916 319.264l-64.9268 40.0391l81.1348 46.875h204.937l87.9512 -46.875l-86.9141 -40.0391h-222.182z" />
    <glyph glyph-name="B" unicode="B" horiz-adv-x="519" 
d="M85.041 101.27l-82.1211 -87.1592l1.11914 335.205l82.0547 -43.2119zM99.9629 421.093l-93.9941 -49.8047l0.119141 334.961l92.9512 -87.1582zM114.885 634.229l-99.9521 85.9375h323.096l38.0859 -43.9453l-50.0488 -41.9922h-211.181zM416.007 371.289
l-87.0547 49.8047l0.0761719 197.998l54.0488 43.2129l33.8418 -43.2129zM378.116 62.3008l-48.0859 39.9688l0.0527344 207.834l87.9941 43.2119l-0.15625 -251.046zM313.954 0.195312h-297.852l78.877 85.9375h221.938l47.0859 -41.9922zM105.938 320.264
l-82.9277 40.0391l87.8906 46.875h211.182l74.9512 -46.875l-86.9141 -40.0391h-204.182z" />
    <glyph glyph-name="C" unicode="C" horiz-adv-x="505" 
d="M45.3955 53.3008l-43.6826 42.9678l1.19824 248.047l86.8809 -50.0479l-1.16504 -197.998zM90.0312 409.257l-87.1777 -42.9688l1.47559 247.803l43.9307 43.2129l42.9834 -43.2129zM106.275 629.229l-44.7676 41.9922l45.0518 43.9453h297.851l-87.1963 -85.9375
h-210.938zM94.9727 0.195312l-39.0625 43.9453l44.0254 41.9922h218.182l74.9512 -85.9375h-298.096z" />
    <glyph glyph-name="D" unicode="D" horiz-adv-x="516" 
d="M88.0547 101.27l-86.7949 -87.1592l-0.286133 335.205l87.166 -43.2119zM87.7471 421.093l-86.9512 -49.8047l-0.250977 334.961l87.2773 -87.1582zM102.527 634.229l-87.1035 85.9375h298.096l44.2998 -43.9453l-44.1104 -41.9922h-211.182zM415.836 371.289
l-88.0986 49.8047l0.0751953 197.998l43.9385 43.2129l43.9531 -43.2129zM372.208 58.3008l-44.1631 42.9688l0.0849609 204.834l87.8828 43.2119l-0.0771484 -248.046zM314.264 0.195312h-297.852l86.7227 85.9375h210.937l44.0264 -41.9922z" />
    <glyph glyph-name="E" unicode="E" horiz-adv-x="504" 
d="M87.3184 101.27l-87.3447 -87.1592l1.8291 335.205l86.8926 -43.2119zM89.0283 421.093l-87.2646 -49.8047l1.86133 334.961l86.7275 -87.1582zM105.152 634.229l-86.5625 85.9375h385.01l-87.2656 -85.9375h-211.182zM400.048 0.195312h-385.009l87.2656 85.9375
h210.937zM103.629 320.264l-81.3369 40.0391l81.5566 46.875h211.181l81.2852 -46.875l-81.5039 -40.0391h-211.182z" />
    <glyph glyph-name="F" unicode="F" horiz-adv-x="501" 
d="M88.0332 86.1328l-86.9678 -85.9375l-0.300781 349.121l87.166 -43.2119zM87.5381 421.094l-86.9512 -49.8047l-0.250977 334.961l87.2773 -87.1582zM102.562 634.229l-87.3486 85.9365h385.01l-86.7227 -85.9365h-210.938zM102.774 320.264l-81.5918 40.0391
l81.5059 46.875h210.938l81.5801 -46.875l-81.251 -40.0391h-211.182z" />
    <glyph glyph-name="G" unicode="G" horiz-adv-x="516" 
d="M44.8506 58.3008l-43.9189 42.9688l-0.166992 248.046l87.166 -43.2119l-0.0849609 -204.834zM87.5381 421.094l-86.9512 -49.8047l0.112305 247.803l43.6934 43.2129l43.2207 -43.2129zM102.562 634.229l-45.001 41.9912l44.8105 43.9453h293.945l-82.8164 -85.9365
h-210.938zM371.999 58.3008l-44.1631 42.9688l0.0849609 204.834l86.9062 43.2119l1.14355 -248.046zM103.116 0.195312l-45.2764 43.9453l45.0869 41.9922h211.181l43.7812 -41.9922l-43.834 -43.9453h-210.938zM233.879 320.264l-82.5674 40.0391l82.2383 46.875h80.0781
l81.5801 -46.875l-81.251 -40.0391h-80.0781z" />
    <glyph glyph-name="H" unicode="H" horiz-adv-x="519" 
d="M86.6738 86.1328l-87.5889 -85.9375l2.22363 349.121l86.8535 -43.2119zM88.6006 421.094l-87.3115 -49.8047l2.25586 348.877l86.4834 -85.9375zM416.328 371.289l-87.7373 49.8047l1.42773 213.135l88.5654 85.9375zM103.106 320.264l-81.3008 40.0391l81.8447 46.875
h210.938l81.2412 -46.875l-81.541 -40.0391h-211.182zM414.123 0.195312l-87.4609 85.9375l1.48828 219.972l88.1963 43.2119z" />
    <glyph glyph-name="I" unicode="I" horiz-adv-x="192" 
d="M89.5703 371.289l-87 49.8047l0.40625 211.135l87.1768 87.9375zM89.1465 0.195312l-86.8955 86.9375l0.432617 218.972l87.0107 43.2119z" />
    <glyph glyph-name="J" unicode="J" 
d="M87.3105 101.27l-86.9736 -87.1592l0.402344 335.205l87.0771 -43.2119zM415.646 371.288l-87.9971 49.8057l0.326172 213.135l88.1211 85.9365zM415.376 14.1113l-88.0742 87.1592l0.505859 204.834l87.9707 43.2119zM400.471 0.196289h-385.011l86.8994 85.9375
h210.938z" />
    <glyph glyph-name="K" unicode="K" 
d="M88.5898 86.1328l-86.9678 -85.9375l-0.300781 349.121l87.166 -43.2119zM88.0947 421.094l-86.9512 -49.8047l-0.266602 348.877l87.1045 -85.9375zM416.661 0.195312l-88.0811 85.9375l-0.101562 219.972l87.8818 43.2119zM103.33 320.264l-81.5898 40.0391
l81.5059 46.875h210.938l81.5801 -46.875l-81.252 -40.0391h-211.182zM167.724 424.268l-62.0117 0.000976562l0.263672 62.0107l245.975 233.887h63.9648l-0.677734 -59.082z" />
    <glyph glyph-name="L" unicode="L" 
d="M87.7295 101.27l-87.1309 -87.1592l1.00488 335.205l87 -43.2119zM88.6533 421.093l-87.1426 -49.8057l1.07812 348.877l86.7734 -85.9365zM415.638 14.1094l-87.918 87.1592l0.874023 204.834l88.0488 43.2119zM400.706 0.194336h-385.009l87.0547 85.9375h210.937z" />
    <glyph glyph-name="M" unicode="M" horiz-adv-x="577" 
d="M86.4268 90.9336l-85.5947 -85.9375l0.249023 349.121l84.8506 -43.2129zM88.3789 425.895l-87.3145 -49.8047l-0.804688 334.961l87.6406 -87.1582zM102.763 639.029l-89.501 85.9375h451.111l-89.5488 -85.9375h-42.9365l-56.5713 0.90918l-58.4199 -0.90918h-114.134z
M476.251 376.09l-87.7588 49.8057l-0.477539 197.998l88.3184 86.1807zM475.019 4.99707l-88.7227 85.9375l-0.47168 219.971l89.1982 43.2129zM244.998 309.987l-41.4814 32.958l0.0537109 243.146l43.1787 38.9453l43.0537 -40.1416l-0.373047 -241.948z" />
    <glyph glyph-name="N" unicode="N" horiz-adv-x="516" 
d="M89.833 87.1328l-86.9678 -85.9375l-0.300781 349.121l87.166 -43.2119zM89.3379 422.094l-86.9512 -49.8047l-0.250977 334.961l87.2773 -87.1582zM104.362 634.229l-87.3477 85.9365l130.006 -0.182617l167 -165l-0.477539 -54h-75.5225zM417.427 372.289
l-88.0977 49.8047l0.0751953 205.998l87.7715 87.1582zM417.905 1.19531l-88.0811 85.9375l-0.101562 219.972l87.8828 43.2119z" />
    <glyph glyph-name="O" unicode="O" 
d="M45.1953 58.3008l-43.9189 42.9688l-0.166992 248.046l87.166 -43.2119l-0.0849609 -204.834zM87.8828 421.094l-86.9512 -49.8047l0.112305 247.803l43.6934 43.2129l43.2207 -43.2129zM102.907 634.229l-44.999 41.9922l44.8105 43.9453h210.937l44.3008 -43.9453
l-44.1104 -41.9922h-210.938zM414.996 371.29l-87.1201 49.8047l0.0751953 197.998l43.9375 43.2129l42.9756 -43.2129zM372.347 58.3018l-44.1631 42.9688l0.0849609 204.834l86.9062 43.2119l1.14258 -248.046zM103.464 0.196289l-45.2783 43.9453l45.0879 41.9922
h211.181l43.7803 -41.9922l-43.834 -43.9453h-210.937z" />
    <glyph glyph-name="P" unicode="P" 
d="M87.71 86.1328l-86.1768 -85.9375l-0.451172 349.121l87.0605 -43.2119zM88.0293 421.094l-86.0723 -49.8047l-0.436523 334.961l87.0654 -87.1582zM103.572 632.229l-87.1396 87.9375h298.096l42.1943 -42.9453l-42.2119 -42.9922zM415.996 371.29l-87.9756 49.8047
l0.555664 197.998l44.043 45.2129l44.0918 -45.2129zM103.021 320.265l-81.4951 40.0391l81.6201 46.875h210.938l81.4658 -46.875l-81.3486 -40.0391h-211.181z" />
    <glyph glyph-name="Q" unicode="Q" horiz-adv-x="518" 
d="M51.5 58.3008l-48.375 42.9688l-1.80566 248.046l90.626 -43.2119l1.09375 -204.834zM88.3291 421.094l-86.4209 -49.8047l-0.523438 247.803l43.2334 43.2129l43.6807 -43.2129zM103.087 634.229l-45.4492 41.9922l44.3438 43.9453h210.938l44.7676 -43.9453
l-43.6641 -41.9922h-210.937zM416.97 371.29l-88.6504 49.8047l-0.0302734 197.998l43.4775 43.2129l43.4355 -43.2129zM378.648 58.3018l-46.6201 42.9688l-0.0927734 204.834l86.4463 43.2119l-0.217773 -248.046zM110.385 0.196289l-44.0303 47.1191l36.9258 41.8184
h68.0117l90.2158 -88.9375h-151.123zM425.979 -127.733l-227.587 216.867h119.873l105.951 -100.9z" />
    <glyph glyph-name="R" unicode="R" horiz-adv-x="580" 
d="M88.3594 101.27l-86.7949 -87.1592l-0.286133 335.205l87.166 -43.2119zM88.0518 421.093l-86.9512 -49.8047l-0.250977 334.961l87.2773 -87.1582zM102.832 634.229l-87.1045 85.9375h298.096l44.2998 -43.9453l-44.1094 -41.9922h-211.182zM416.14 371.289
l-88.0977 49.8047l0.0751953 197.998l43.9375 43.2129l43.9531 -43.2129zM103.288 320.264l-81.5908 40.0391l81.2617 46.875h211.182l81.5801 -46.875l-81.251 -40.0391h-211.182zM328.488 100.293l-106.255 205.811h98.1445l159.367 -306.885z" />
    <glyph glyph-name="S" unicode="S" horiz-adv-x="516" 
d="M87.1445 421.094l-87.0254 -49.8047l0.485352 247.803l43.7588 43.2129l43.1553 -43.2129zM102.49 634.229l-44.9375 41.9912l44.877 43.9453h312.988l-94.9102 -85.9365h-218.018zM371.06 58.3008l-44.0986 42.9688l0.392578 204.834l87.9492 43.2119
l-0.207031 -248.046zM313.027 0.195312h-312.987l95.1533 85.9375h218.018l43.7168 -41.9922zM102.23 320.264l-81.5312 40.0391l81.5762 46.875h210.938l81.5098 -46.875l-81.3115 -40.0391h-211.182z" />
    <glyph glyph-name="T" unicode="T" horiz-adv-x="534" 
d="M222.203 0.195312l-44.9297 47.1191l-1.30859 257.812l45.2998 46.1426l43.5674 -46.1426l1.55371 -257.812zM221.621 362.256l-45.1611 41.9922l-0.74707 211.914l44.1816 47.1191l43.9531 -47.1191l0.74707 -211.914zM74.2119 634.229l-69.6094 85.9365h428.955
l-68.3301 -85.9365h-95.2148l-49.2607 50.0479l-52.5459 -50.0479h-93.9941z" />
    <glyph glyph-name="U" unicode="U" horiz-adv-x="518" 
d="M45.5615 58.3008l-43.5547 42.9688l-0.0664062 248.046l86.7998 -43.2119l0.180664 -204.834zM91.3203 421.094l-90.3721 -49.8047l-0.3125 348.877l90.9639 -83.0078zM418.011 371.289l-86.7012 49.8047l0.279297 216.064l86.1084 83.0078zM372.709 58.3008
l-43.7998 36.9678l0.819336 210.835l88.2734 43.2119l-0.957031 -248.046zM103.334 0.194336l-44.9043 43.9453l45.4424 41.9922h211.182l43.4238 -41.9922l-44.2061 -43.9453h-210.938z" />
    <glyph glyph-name="V" unicode="V" 
d="M88.0957 421.094l-87.0586 -49.8047l0.474609 334.961l87.0879 -87.1582zM415.1 371.289l-87.0146 49.8047l0.503906 197.998l86.9844 87.1582zM196.892 -0.78125l-196.109 359.863l114.255 -29.7852l82.7842 -149.17zM416.934 358.105l-198.208 -357.909
l1.06738 179.932l83.2314 149.17z" />
    <glyph glyph-name="W" unicode="W" horiz-adv-x="580" 
d="M88.4268 618.033l0.504883 -199.972l-84.8506 -43.2119l-0.249023 328.121zM91.3789 303.071l0.521484 -197.998l-48.6406 -45.1582l-39.8135 43.6865l0.618164 249.274zM105.763 89.9365h272.062l47.5488 -50.9375l-44.1182 -35h-274l-48.9932 43zM479.252 352.876
l0.25 -248.274l-42.167 -50.71l-47.3184 51.1816l0.477539 197.998zM478.021 701.97l0.00488281 -327.121l-89.1982 43.2119l-0.52832 192.971zM248.001 428.979l44.4307 -42.959l0.373047 -241.947l-43.0537 -40.1416l-43.1787 38.9453l-0.0537109 243.144z" />
    <glyph glyph-name="X" unicode="X" horiz-adv-x="529" 
d="M92.5703 0.195312h-90.0352l0.350586 72.998l156.257 277.1h44.9209l0.203125 -102.051zM158.326 370.312l-156.765 281.982l0.333008 67.8711h58.9883l140.843 -250l0.545898 -99.8535h-43.9453zM269.411 370.312h-46.1416l0.475586 99.8535l111.064 250h63.0576
l0.28418 -71.0449zM365.521 0.195312l-141.258 248.047l-0.178711 102.051h45.8984l157.242 -279.053l1.28418 -71.0449h-62.9883z" />
    <glyph glyph-name="Y" unicode="Y" horiz-adv-x="516" 
d="M208.004 0.195312l-41.9902 50.0488l-0.581055 250.977h89.1113l0.336914 -250.977zM102.681 320.264l-82.5664 40.0391l82.2383 46.875h211.181l81.5801 -46.875l-81.252 -40.0391h-211.181zM87.4453 421.094l-86.9512 -49.8047l-0.266602 348.877l87.1045 -85.9375z
M415.533 371.289l-88.0967 49.8047l-0.114258 213.135l87.9453 85.9375z" />
    <glyph glyph-name="Z" unicode="Z" horiz-adv-x="515" 
d="M402.599 0.195312h-282.959l40.3281 85.9375h155.029zM101.572 0.195312h-94.9707l145.501 330.078l103.988 20.0195zM261.955 365.186l-57.3516 91.0645l116.18 263.916h93.9941zM105.407 634.229l-86.626 85.9375h281.982l-36.4209 -85.9375h-158.936z" />
    <glyph glyph-name="bracketleft" unicode="[" horiz-adv-x="1000" 
d="M144.641 101.27l-86.6211 -87.1592l-0.958984 335.205l87.2529 -43.2119zM143.689 421.093l-86.8506 -49.8047l-0.923828 334.961l87.4521 -87.1582zM276.08 0.194336h-202.881l86.5508 85.9375h29.0527zM158.042 634.229l-87.2773 85.9375h203.125l-86.7949 -85.9375
h-29.0527z" />
    <glyph glyph-name="backslash" unicode="\" horiz-adv-x="1000" 
d="M449.821 3.19531l-124.852 320.068h101.074l125.828 -320.068h-102.051zM317.631 344.26l-149.827 378.906h102.051l114.931 -291.992z" />
    <glyph glyph-name="bracketright" unicode="]" horiz-adv-x="1000" 
d="M273.247 371.289l-86.6689 42.9688l0.883789 204.834l87.2383 87.1582zM272.136 14.1113l-87.0771 87.1592l1.08301 197.998l87.1699 50.0479zM257.92 0.196289h-203.857l87.1611 85.9375h30.0293zM143.406 634.23l-86.667 85.9375h204.102l-88.3818 -85.9375h-29.0527z
" />
    <glyph glyph-name="a" unicode="a" horiz-adv-x="514" 
d="M86.041 86.1328l-84.1211 -85.9375l0.0722656 349.121l84.0547 -43.2119zM92.916 421.094l-90.9941 -49.8047l-0.880859 334.961l91.9512 -87.1582zM103.082 634.229l-92.1963 85.9365h397.01l-98.876 -85.9365h-205.938zM412.96 371.289l-98.0547 49.8047
l0.0761719 197.998l98.0977 87.1582zM412.958 0.195312l-95.9277 84.9375l0.00585938 219.972l95.9941 44.2119zM85.8916 319.264l-64.9268 40.0391l81.1348 46.875h204.937l87.9512 -46.875l-86.9141 -40.0391h-222.182z" />
    <glyph glyph-name="b" unicode="b" horiz-adv-x="519" 
d="M85.041 101.27l-82.1211 -87.1592l1.11914 335.205l82.0547 -43.2119zM99.9629 421.093l-93.9941 -49.8047l0.119141 334.961l92.9512 -87.1582zM114.885 634.229l-99.9521 85.9375h323.096l38.0859 -43.9453l-50.0488 -41.9922h-211.181zM416.007 371.289
l-87.0547 49.8047l0.0761719 197.998l54.0488 43.2129l33.8418 -43.2129zM378.116 62.3008l-48.0859 39.9688l0.0527344 207.834l87.9941 43.2119l-0.15625 -251.046zM313.954 0.195312h-297.852l78.877 85.9375h221.938l47.0859 -41.9922zM105.938 320.264
l-82.9277 40.0391l87.8906 46.875h211.182l74.9512 -46.875l-86.9141 -40.0391h-204.182z" />
    <glyph glyph-name="c" unicode="c" horiz-adv-x="505" 
d="M45.3955 53.3008l-43.6826 42.9678l1.19824 248.047l86.8809 -50.0479l-1.16504 -197.998zM90.0312 409.257l-87.1777 -42.9688l1.47559 247.803l43.9307 43.2129l42.9834 -43.2129zM106.275 629.229l-44.7676 41.9922l45.0518 43.9453h297.851l-87.1963 -85.9375
h-210.938zM94.9727 0.195312l-39.0625 43.9453l44.0254 41.9922h218.182l74.9512 -85.9375h-298.096z" />
    <glyph glyph-name="d" unicode="d" horiz-adv-x="516" 
d="M88.0547 101.27l-86.7949 -87.1592l-0.286133 335.205l87.166 -43.2119zM87.7471 421.093l-86.9512 -49.8047l-0.250977 334.961l87.2773 -87.1582zM102.527 634.229l-87.1035 85.9375h298.096l44.2998 -43.9453l-44.1104 -41.9922h-211.182zM415.836 371.289
l-88.0986 49.8047l0.0751953 197.998l43.9385 43.2129l43.9531 -43.2129zM372.208 58.3008l-44.1631 42.9688l0.0849609 204.834l87.8828 43.2119l-0.0771484 -248.046zM314.264 0.195312h-297.852l86.7227 85.9375h210.937l44.0264 -41.9922z" />
    <glyph glyph-name="e" unicode="e" horiz-adv-x="504" 
d="M87.3184 101.27l-87.3447 -87.1592l1.8291 335.205l86.8926 -43.2119zM89.0283 421.093l-87.2646 -49.8047l1.86133 334.961l86.7275 -87.1582zM105.152 634.229l-86.5625 85.9375h385.01l-87.2656 -85.9375h-211.182zM400.048 0.195312h-385.009l87.2656 85.9375
h210.937zM103.629 320.264l-81.3369 40.0391l81.5566 46.875h211.181l81.2852 -46.875l-81.5039 -40.0391h-211.182z" />
    <glyph glyph-name="f" unicode="f" horiz-adv-x="501" 
d="M88.0332 86.1328l-86.9678 -85.9375l-0.300781 349.121l87.166 -43.2119zM87.5381 421.094l-86.9512 -49.8047l-0.250977 334.961l87.2773 -87.1582zM102.562 634.229l-87.3486 85.9365h385.01l-86.7227 -85.9365h-210.938zM102.774 320.264l-81.5918 40.0391
l81.5059 46.875h210.938l81.5801 -46.875l-81.251 -40.0391h-211.182z" />
    <glyph glyph-name="g" unicode="g" horiz-adv-x="516" 
d="M44.8506 58.3008l-43.9189 42.9688l-0.166992 248.046l87.166 -43.2119l-0.0849609 -204.834zM87.5381 421.094l-86.9512 -49.8047l0.112305 247.803l43.6934 43.2129l43.2207 -43.2129zM102.562 634.229l-45.001 41.9912l44.8105 43.9453h293.945l-82.8164 -85.9365
h-210.938zM371.999 58.3008l-44.1631 42.9688l0.0849609 204.834l86.9062 43.2119l1.14355 -248.046zM103.116 0.195312l-45.2764 43.9453l45.0869 41.9922h211.181l43.7812 -41.9922l-43.834 -43.9453h-210.938zM233.879 320.264l-82.5674 40.0391l82.2383 46.875h80.0781
l81.5801 -46.875l-81.251 -40.0391h-80.0781z" />
    <glyph glyph-name="h" unicode="h" horiz-adv-x="519" 
d="M86.6738 86.1328l-87.5889 -85.9375l2.22363 349.121l86.8535 -43.2119zM88.6006 421.094l-87.3115 -49.8047l2.25586 348.877l86.4834 -85.9375zM416.328 371.289l-87.7373 49.8047l1.42773 213.135l88.5654 85.9375zM103.106 320.264l-81.3008 40.0391l81.8447 46.875
h210.938l81.2412 -46.875l-81.541 -40.0391h-211.182zM414.123 0.195312l-87.4609 85.9375l1.48828 219.972l88.1963 43.2119z" />
    <glyph glyph-name="i" unicode="i" horiz-adv-x="193" 
d="M89.5703 371.289l-87 49.8047l0.40625 213.135l87.1768 85.9375zM89.1465 0.195312l-86.8955 85.9375l0.432617 219.972l87.0107 43.2119z" />
    <glyph glyph-name="j" unicode="j" 
d="M87.3105 101.27l-86.9736 -87.1592l0.402344 335.205l87.0771 -43.2119zM415.646 371.288l-87.9971 49.8057l0.326172 213.135l88.1211 85.9365zM415.376 14.1113l-88.0742 87.1592l0.505859 204.834l87.9707 43.2119zM400.471 0.196289h-385.011l86.8994 85.9375
h210.938z" />
    <glyph glyph-name="k" unicode="k" 
d="M88.5898 86.1328l-86.9678 -85.9375l-0.300781 349.121l87.166 -43.2119zM88.0947 421.094l-86.9512 -49.8047l-0.266602 348.877l87.1045 -85.9375zM416.661 0.195312l-88.0811 85.9375l-0.101562 219.972l87.8818 43.2119zM103.33 320.264l-81.5898 40.0391
l81.5059 46.875h210.938l81.5801 -46.875l-81.252 -40.0391h-211.182zM167.724 424.268l-62.0117 0.000976562l0.263672 62.0107l245.975 233.887h63.9648l-0.677734 -59.082z" />
    <glyph glyph-name="l" unicode="l" 
d="M87.7295 101.27l-87.1309 -87.1592l1.00488 335.205l87 -43.2119zM88.6533 421.093l-87.1426 -49.8057l1.07812 348.877l86.7734 -85.9365zM415.638 14.1094l-87.918 87.1592l0.874023 204.834l88.0488 43.2119zM400.706 0.194336h-385.009l87.0547 85.9375h210.937z" />
    <glyph glyph-name="m" unicode="m" horiz-adv-x="577" 
d="M86.4268 90.9336l-85.5947 -85.9375l0.249023 349.121l84.8506 -43.2129zM88.3789 425.895l-87.3145 -49.8047l-0.804688 334.961l87.6406 -87.1582zM102.763 639.029l-89.501 85.9375h451.111l-89.5488 -85.9375h-42.9365l-56.5713 0.90918l-58.4199 -0.90918h-114.134z
M476.251 376.09l-87.7588 49.8057l-0.477539 197.998l88.3184 86.1807zM475.019 4.99707l-88.7227 85.9375l-0.47168 219.971l89.1982 43.2129zM244.998 309.987l-41.4814 32.958l0.0537109 243.146l43.1787 38.9453l43.0537 -40.1416l-0.373047 -241.948z" />
    <glyph glyph-name="n" unicode="n" horiz-adv-x="516" 
d="M89.833 87.1328l-86.9678 -85.9375l-0.300781 349.121l87.166 -43.2119zM89.3379 422.094l-86.9512 -49.8047l-0.250977 334.961l87.2773 -87.1582zM104.362 634.229l-87.3477 85.9365l130.006 -0.182617l167 -167l-0.477539 -52h-75.5225zM417.427 372.289
l-88.0977 49.8047l0.0751953 205.998l87.7715 87.1582zM417.905 1.19531l-88.0811 85.9375l-0.101562 219.972l87.8828 43.2119z" />
    <glyph glyph-name="o" unicode="o" 
d="M45.1953 58.3008l-43.9189 42.9688l-0.166992 248.046l87.166 -43.2119l-0.0849609 -204.834zM87.8828 421.094l-86.9512 -49.8047l0.112305 247.803l43.6934 43.2129l43.2207 -43.2129zM102.907 634.229l-44.999 41.9922l44.8105 43.9453h210.937l44.3008 -43.9453
l-44.1104 -41.9922h-210.938zM414.996 371.29l-87.1201 49.8047l0.0751953 197.998l43.9375 43.2129l42.9756 -43.2129zM372.347 58.3018l-44.1631 42.9688l0.0849609 204.834l86.9062 43.2119l1.14258 -248.046zM103.464 0.196289l-45.2783 43.9453l45.0879 41.9922
h211.181l43.7803 -41.9922l-43.834 -43.9453h-210.937z" />
    <glyph glyph-name="p" unicode="p" 
d="M87.71 86.1328l-87.1768 -85.9375l0.548828 349.121l87.0605 -43.2119zM89.0293 421.094l-87.0723 -49.8047l-0.436523 334.961l87.0654 -87.1582zM103.572 631.229l-87.1396 88.9375h298.096l46.1943 -43.9453l-46.2119 -44.9922h-210.938zM415.996 371.29
l-87.9756 49.8047l-0.444336 197.998l45.043 45.2129l44.0918 -45.2129zM103.021 320.265l-81.4951 40.0391l81.6201 46.875h210.938l81.4658 -46.875l-81.3486 -40.0391h-211.181z" />
    <glyph glyph-name="q" unicode="q" horiz-adv-x="518" 
d="M51.5 58.3008l-48.375 42.9688l-1.80566 248.046l90.626 -43.2119l1.09375 -204.834zM88.3291 421.094l-86.4209 -49.8047l-0.523438 247.803l43.2334 43.2129l43.6807 -43.2129zM103.087 634.229l-45.4492 41.9922l44.3438 43.9453h210.938l44.7676 -43.9453
l-43.6641 -41.9922h-210.937zM416.97 371.29l-88.6504 49.8047l-0.0302734 197.998l43.4775 43.2129l43.4355 -43.2129zM378.648 58.3018l-46.6201 42.9688l-0.0927734 204.834l86.4463 43.2119l-0.217773 -248.046zM110.385 0.196289l-44.0303 47.1191l36.9258 41.8184
h68.0117l90.2158 -88.9375h-151.123zM425.979 -127.733l-227.587 216.867h119.873l105.951 -100.9z" />
    <glyph glyph-name="r" unicode="r" horiz-adv-x="580" 
d="M88.3594 101.27l-86.7949 -87.1592l-0.286133 335.205l87.166 -43.2119zM88.0518 421.093l-86.9512 -49.8047l-0.250977 334.961l87.2773 -87.1582zM102.832 634.229l-87.1045 85.9375h298.096l44.2998 -43.9453l-44.1094 -41.9922h-211.182zM416.14 371.289
l-88.0977 49.8047l0.0751953 197.998l43.9375 43.2129l43.9531 -43.2129zM103.288 320.264l-81.5908 40.0391l81.2617 46.875h211.182l81.5801 -46.875l-81.251 -40.0391h-211.182zM328.488 100.293l-106.255 205.811h98.1445l159.367 -306.885z" />
    <glyph glyph-name="s" unicode="s" horiz-adv-x="516" 
d="M87.1445 421.094l-87.0254 -49.8047l0.485352 247.803l43.7588 43.2129l43.1553 -43.2129zM102.49 634.229l-44.9375 41.9912l44.877 43.9453h312.988l-94.9102 -85.9365h-218.018zM371.06 58.3008l-44.0986 42.9688l0.392578 204.834l87.9492 43.2119
l-0.207031 -248.046zM313.027 0.195312h-312.987l95.1533 85.9375h218.018l43.7168 -41.9922zM102.23 320.264l-81.5312 40.0391l81.5762 46.875h210.938l81.5098 -46.875l-81.3115 -40.0391h-211.182z" />
    <glyph glyph-name="t" unicode="t" horiz-adv-x="534" 
d="M222.203 0.195312l-44.9297 47.1191l-1.30859 257.812l45.2998 46.1426l43.5674 -46.1426l1.55371 -257.812zM221.621 362.256l-45.1611 41.9922l-0.74707 211.914l44.1816 47.1191l43.9531 -47.1191l0.74707 -211.914zM74.2119 634.229l-69.6094 85.9365h428.955
l-68.3301 -85.9365h-95.2148l-49.2607 50.0479l-52.5459 -50.0479h-93.9941z" />
    <glyph glyph-name="u" unicode="u" horiz-adv-x="518" 
d="M45.5615 58.3008l-43.5547 42.9688l-0.0664062 248.046l86.7998 -43.2119l0.180664 -204.834zM91.3203 421.094l-90.3721 -49.8047l-0.3125 348.877l90.9639 -83.0078zM418.011 371.289l-86.7012 49.8047l0.279297 216.064l86.1084 83.0078zM372.709 58.3008
l-43.7998 36.9678l0.819336 210.835l88.2734 43.2119l-0.957031 -248.046zM103.334 0.194336l-44.9043 43.9453l45.4424 41.9922h211.182l43.4238 -41.9922l-44.2061 -43.9453h-210.938z" />
    <glyph glyph-name="v" unicode="v" 
d="M88.0957 421.094l-87.0586 -49.8047l0.474609 334.961l87.0879 -87.1582zM415.1 371.289l-87.0146 49.8047l0.503906 197.998l86.9844 87.1582zM196.892 -0.78125l-196.109 359.863l114.255 -29.7852l82.7842 -149.17zM416.934 358.105l-198.208 -357.909
l1.06738 179.932l83.2314 149.17z" />
    <glyph glyph-name="w" unicode="w" horiz-adv-x="580" 
d="M88.4268 638.033l0.504883 -219.972l-84.8506 -43.2119l-0.249023 349.121zM91.3789 303.071l0.521484 -197.998l-48.6406 -45.1582l-39.8135 43.6865l0.618164 249.274zM105.763 89.9365h114.135l58.4199 0.0917969l56.5713 -0.0917969h42.9365l47.5488 -50.9375
l-44.1182 -35h-274l-48.9932 43zM479.253 352.876l-0.75 -248.274l-41.167 -50.71l-46.3184 51.1816l-0.522461 197.998zM478.021 723.97l0.00488281 -349.121l-89.1982 43.2119l-0.52832 219.971zM248.002 418.979l44.4307 -32.959l0.373047 -241.947l-43.0537 -40.1416
l-43.1787 38.9453l-0.0537109 243.144z" />
    <glyph glyph-name="x" unicode="x" horiz-adv-x="529" 
d="M98.5703 0.195312h-90.0352l0.350586 72.998l156.257 277.1h44.9209l0.203125 -102.051zM164.326 370.312l-156.765 281.982l0.333008 67.8711h58.9883l140.843 -250l0.545898 -99.8535h-43.9453zM275.411 370.312h-46.1416l0.475586 99.8535l111.064 250h63.0576
l0.28418 -71.0449zM371.521 0.195312l-141.258 248.047l-0.178711 102.051h45.8984l157.242 -279.053l1.28418 -71.0449h-62.9883z" />
    <glyph glyph-name="y" unicode="y" horiz-adv-x="516" 
d="M208.004 0.195312l-41.9902 50.0488l-0.581055 250.977h89.1113l0.336914 -250.977zM102.681 320.264l-82.5664 40.0391l82.2383 46.875h211.181l81.5801 -46.875l-81.252 -40.0391h-211.181zM87.4453 421.094l-86.9512 -49.8047l-0.266602 348.877l87.1045 -85.9375z
M415.533 371.289l-88.0967 49.8047l-0.114258 213.135l88.9453 85.9375z" />
    <glyph glyph-name="z" unicode="z" horiz-adv-x="515" 
d="M402.599 0.195312h-282.959l40.3281 85.9375h155.029zM101.572 0.195312h-94.9707l145.501 330.078l103.988 20.0195zM261.955 365.186l-57.3516 91.0645l116.18 263.916h93.9941zM105.407 634.229l-86.626 85.9375h281.982l-36.4209 -85.9375h-158.936z" />
    <glyph glyph-name="braceleft" unicode="{" horiz-adv-x="370" 
d="M126.128 289.258c0 5.37109 -0.117188 9.03223 -0.355469 10.9854c-2.08691 17.2529 -8.86914 31.5752 -20.3389 42.9688c-11.3086 11.3926 -24.9375 17.0898 -40.8877 17.0898l23.2158 5.85938c25.9648 11.3936 39.0498 33.04 39.2549 64.9424l0.178711 335.205
c0.0498047 43.9453 25.79 65.918 77.2227 65.918h64.9414l0.34375 -37.1104h-11.9629c-23.9258 0 -39.4316 -3.66211 -46.5205 -10.9863c-7.82422 -7.97559 -11.8252 -24.6572 -12.0059 -50.0479l-0.0556641 -295.898
c-0.342773 -20.0195 -6.62598 -37.3535 -18.8486 -52.002c-12.874 -14.6494 -29.1641 -23.2754 -48.8691 -25.8789c17.6719 -2.11621 32.8418 -9.11523 45.5117 -20.9961c12.2793 -12.6963 19.5527 -28.4023 21.8193 -47.1191
c-0.0800781 -4.71973 0 -8.05664 0.236328 -10.0098l-1.27832 -295.898c-0.158203 -4.06934 -0.0400391 -7.73145 0.353516 -10.9863l1.21289 -10.0098c1.95117 -16.1133 6.90918 -26.8145 14.874 -32.1045s22.2822 -7.93457 42.9531 -7.93457h10.9863l-0.388672 -37.1094
h-63.9648c-47.3633 0 -73.3125 18.7178 -77.8457 56.1523c0.0996094 4.55762 0.0205078 7.89355 -0.235352 10.0098z" />
    <glyph glyph-name="braceright" unicode="}" horiz-adv-x="409" 
d="M168.49 -111.865l-64.9424 -0.000976562l0.59375 37.1094h10.9863c23.9258 0 39.7148 3.9873 47.3672 11.9629c7.08008 7.32422 10.7549 23.6816 11.0703 49.0723l-0.246094 295.898c0.323242 20.0186 6.92578 37.3525 19.7852 52.002
c12.208 14.6484 28.1533 23.3564 47.834 26.123c-17.6543 1.95312 -32.5449 9.27734 -44.6748 21.9727c-12.8447 11.8818 -20.4102 27.1807 -22.6982 45.8984c0.0175781 1.12402 0.0263672 2.16992 0.0263672 3.13672c0 3.09375 -0.0908203 5.38477 -0.272461 6.87305
l0.963867 295.898c-0.168945 12.0439 -0.422852 19.4502 -0.760742 22.2168c-1.86914 15.2998 -7.11426 25.5938 -15.7354 30.8838s-22.9424 7.93359 -42.9619 7.93359h-10.9863l0.349609 37.1104h63.9648c47.3643 0 73.3311 -18.7178 77.9043 -56.1523
c-0.0273438 -1.28711 -0.0400391 -2.46973 -0.0400391 -3.54883c0 -2.74316 0.0849609 -4.81445 0.255859 -6.2168l-0.0683594 -335.205l-0.000976562 -0.830078c0 -4.76855 0.121094 -8.1543 0.366211 -10.1562c2.1084 -17.2529 8.82227 -31.5752 20.1426 -42.9688
c11.4629 -11.2305 25.1699 -16.8457 41.1201 -16.8457c-17.9033 0 -32.7139 -6.67285 -44.4297 -20.0195c-11.7158 -13.3457 -17.6934 -30.3535 -17.9355 -51.0244l-0.0986328 -334.961l0.000976562 -0.459961c0 -43.8018 -25.626 -65.7021 -76.8799 -65.7021z" />
    <glyph glyph-name="cent" unicode="&#xa2;" horiz-adv-x="1000" 
d="M124.548 58.3008l-43.6729 42.9688l1.24707 248.046l86.8711 -50.0479l-1.2041 -197.998zM169.256 414.258l-87.1865 -42.9688l1.52539 247.803l43.9395 43.2129l42.9746 -43.2129zM280.736 -140.918l-43.6211 55.1758l0.235352 72.0215l44.2168 42.9688
l44.0498 -43.9453l0.34375 -69.0918zM182.482 0.195312l-42.5635 41.9922l43.8398 43.9453h213.135l86.6143 -85.9375h-150.879l-50.9326 56.8848l-52.0938 -56.8848h-47.1201zM186.521 634.229l-41.6992 41.0156l42.9756 44.9219h49.0723l49.1816 -52.9785l54.8223 52.9785
h146.973l-87.458 -85.9375h-213.867zM285.999 689.16l-42.2832 47.1182l1.21191 72.0225l42.4668 46.875l44.877 -50.0488l0.310547 -68.8477z" />
    <glyph glyph-name="sterling" unicode="&#xa3;" horiz-adv-x="1000" 
d="M543.964 0.195312h-398.926l101.215 85.9375h209.961zM246.78 634.229l-43.6182 41.9922l44.7354 43.9453h298.096l-88.2744 -85.9375h-210.938zM48.0293 320.264l-43.4258 38.8184l45.3857 48.0957h76.1719l49.7197 -49.0732l-47.7734 -37.8408h-80.0781z
M186.738 373.242l-41.665 41.9912l0.764648 203.858l43.835 45.166l44.2998 -45.166l-0.741211 -205.811zM247.006 320.264l-44.2676 37.8408l46.2275 49.0732h120.117l42.6396 -49.0732l-42.6465 -37.8408h-122.07zM231.102 102.245l-89.2129 -72.0215l0.803711 270.996
l46.4951 40.0391l42.373 -40.0391z" />
    <glyph glyph-name="yen" unicode="&#xa5;" horiz-adv-x="1000" 
d="M226.074 227.246c-37.4336 0 -68.7666 13.0225 -93.9941 39.0645c-26.042 25.2266 -39.0625 56.5576 -39.0625 93.9922c0 36.6211 12.9805 67.9121 38.9404 93.8721s57.332 38.9404 94.1162 38.9404c37.2734 0 68.9307 -12.6143 94.9727 -37.8418
c25.2266 -26.042 37.8418 -57.6992 37.8418 -94.9717c0 -37.4346 -12.6152 -68.7656 -37.8418 -93.9922c-26.042 -26.042 -57.6992 -39.0635 -94.9727 -39.0635z" />
    <glyph glyph-name="dieresis" unicode="&#xa8;" horiz-adv-x="1000" 
d="M739.99 325.146c0 -95.377 -33.6914 -176.676 -101.074 -243.896c-67.2197 -67.3828 -148.519 -101.074 -243.896 -101.074c-95.3779 0 -176.758 33.6914 -244.141 101.074c-67.2197 67.2197 -100.83 148.519 -100.83 243.896c0 95.3779 33.6104 176.758 100.83 244.141
c67.3828 67.2197 148.763 100.83 244.141 100.83c95.377 0 176.676 -33.6104 243.896 -100.83c67.3828 -67.3828 101.074 -148.763 101.074 -244.141zM699.951 325.146c0 83.9854 -29.623 156.006 -88.8682 216.064c-60.0586 59.2451 -132.404 88.8672 -217.04 88.8672
s-156.332 -29.6221 -215.089 -88.8672c-59.2451 -60.0586 -88.8672 -132.404 -88.8672 -217.04c0 -83.9844 29.6221 -155.682 88.8672 -215.089c59.4072 -59.2451 131.43 -88.8672 216.065 -88.8672c83.9844 0 156.006 30.0293 216.064 90.0879
c59.2451 59.2451 88.8672 130.859 88.8672 214.844zM343.018 328.075l-0.00195312 -129.883c0 -10.7422 4.6377 -18.0664 13.916 -21.9727c8.78906 -4.71973 19.7754 -7.08008 32.959 -7.08008v-18.0674h-159.913v18.0674c13.998 0 25.6348 2.03418 34.9131 6.10352
c9.44043 3.90625 14.1602 10.5791 14.1602 20.0205v287.841c0 14.6494 -2.03418 23.3574 -6.10449 26.124c-4.55664 2.60449 -17.1719 3.90625 -37.8428 3.90625v18.0664h166.993c19.2061 0 33.8545 -0.325195 43.9453 -0.976562
c9.92871 -1.30176 21.2393 -4.3125 33.9346 -9.03223c12.6963 -4.71875 23.6826 -11.0664 32.96 -19.042c7.3252 -6.02246 13.3477 -13.0215 18.0674 -20.9971c7.32422 -12.6953 10.9863 -27.3438 10.9863 -43.9453c0 -14.6484 -3.01074 -28.3203 -9.0332 -41.0166
c-6.02148 -13.3457 -13.3467 -23.6807 -21.9727 -31.0049c-8.62598 -7.3252 -17.252 -13.0215 -25.8779 -17.0908c-14.8105 -7.3252 -29.541 -10.9873 -44.1895 -10.9873l120.117 -153.808c4.71973 -6.02344 10.0098 -9.68555 15.8691 -10.9873
c5.37109 -2.11621 12.0439 -3.17285 20.0195 -3.17285v-18.0674h-94.9707l-133.057 177.002h-25.8779zM342.039 490.186l0.977539 -138.916h15.8691c12.0439 0 22.0527 0.651367 30.0283 1.95312c7.32422 0.651367 16.0322 2.60449 26.123 5.85938
c40.0391 13.3467 60.0586 37.0273 60.0586 71.0439c0 5.37109 -0.733398 14.7295 -2.19824 28.0762c-1.30078 12.6953 -9.27637 24.6582 -23.9248 35.8896c-9.92871 8.13672 -20.915 12.207 -32.959 12.207l-52.9785 3.90625c-5.37109 0 -10.0098 -1.70898 -13.916 -5.12695
c-4.71973 -3.90625 -7.08008 -8.87012 -7.08008 -14.8926z" />
    <glyph glyph-name="copyright" unicode="&#xa9;" horiz-adv-x="1000" 
d="M51.0254 330.273c0 95.2148 33.6494 176.514 100.951 243.896c67.3008 67.3828 148.641 101.074 244.019 101.074s176.677 -33.6914 243.896 -101.074c67.3818 -67.3828 101.074 -148.682 101.074 -243.896c0 -95.377 -33.6924 -176.757 -101.074 -244.14
c-67.2197 -67.2197 -148.519 -100.83 -243.896 -100.83s-176.677 33.6104 -243.896 100.83c-67.3828 67.3828 -101.074 148.763 -101.074 244.14zM91.0635 330.273c0 -83.9844 29.9492 -155.681 89.8438 -215.088c59.4072 -60.0586 131.104 -90.0879 215.089 -90.0879
s156.006 30.0293 216.064 90.0879c59.2451 59.4072 88.8672 131.104 88.8672 215.088c0 83.9854 -29.6221 155.926 -88.8672 215.822c-60.0586 59.4072 -132.081 89.1113 -216.065 89.1113s-155.682 -29.7041 -215.089 -89.1113
c-59.8945 -59.8965 -89.8428 -131.837 -89.8428 -215.822zM524.902 518.263l19.04 0.000976562l4.15137 -128.174h-20.0205c-2.76562 16.1133 -9.11328 32.1455 -19.042 48.0967c-13.3457 21.3213 -29.3789 35.9697 -48.0957 43.9453
c-19.3691 7.97461 -37.0283 11.9629 -52.9785 11.9629c-38.5742 0 -69.9053 -15.625 -93.9941 -46.875c-27.3438 -34.668 -41.0156 -76.6602 -41.0156 -125.978c0 -42.6426 10.6611 -79.0195 31.9834 -109.131c20.6709 -29.9482 49.3975 -44.9219 86.1816 -44.9219
c33.2031 0 58.5127 2.68555 75.9277 8.05664c17.2529 4.55762 37.2734 16.1943 60.0596 34.9121l11.9629 10.0098l10.9863 -18.0664c-21.9727 -22.624 -38.9814 -37.9238 -51.0254 -45.8994c-28.6445 -18.7178 -60.9521 -28.0762 -96.9209 -28.0762
c-19.3691 0 -40.7725 3.01074 -64.209 9.0332c-40.5283 10.7422 -72.1855 33.7734 -94.9717 69.0928c-22.624 34.668 -33.9355 73.3232 -33.9355 115.967c0 32.7148 6.67285 63.3945 20.0195 92.041c12.6953 27.9951 32.0635 51.2695 58.1055 69.8242
c17.2529 12.6953 35.5635 22.0547 54.9316 28.0771c19.3682 5.37109 37.6787 8.05664 54.9316 8.05664c17.415 0 34.749 -2.03418 52.002 -6.10449c20.0186 -6.02246 32.3887 -9.35938 37.1084 -10.0107c4.55762 -1.30176 9.52051 -1.9541 14.8926 -1.9541
c13.9971 0 21.9717 5.37207 23.9248 16.1143z" />
    <glyph glyph-name="uni00AD" unicode="&#xad;" horiz-adv-x="1000" 
d="M325.893 320.264l-75.9277 40.0391l88.1348 46.875l336.931 -0.713867l74.9512 -46.875l-86.9141 -40.0391z" />
  </font>
</defs>
</svg>
